<svg width="48" height="48" viewBox="0 0 48 48" fill="none" xmlns="http://www.w3.org/2000/svg">
<rect width="48" height="48" fill="#0F0F0F"/>
<rect x="8" y="13" width="2" height="2" fill="white"/>
<rect x="8" y="15" width="2" height="2" fill="white"/>
<rect x="10" y="15" width="17" height="16" fill="white"/>
<rect x="8" y="17" width="2" height="2" fill="white"/>
<rect x="8" y="19" width="2" height="2" fill="white"/>
<rect x="8" y="21" width="2" height="2" fill="white"/>
<rect x="8" y="23" width="2" height="2" fill="white"/>
<rect x="8" y="25" width="2" height="2" fill="white"/>
<rect x="10" y="13" width="2" height="2" fill="white"/>
<rect x="12" y="13" width="2" height="2" fill="white"/>
<rect x="14" y="13" width="2" height="2" fill="white"/>
<rect x="16" y="13" width="2" height="2" fill="white"/>
<rect x="18" y="13" width="2" height="2" fill="white"/>
<rect x="20" y="13" width="2" height="2" fill="white"/>
<rect x="22" y="13" width="2" height="2" fill="white"/>
<rect x="24" y="13" width="2" height="2" fill="white"/>
<rect x="26" y="13" width="2" height="2" fill="white"/>
<rect x="25" y="15" width="2" height="6" fill="white"/>
<rect x="25" y="25" width="2" height="6" fill="white"/>
<rect x="30" y="13" width="2" height="2" fill="white"/>
<rect x="34" y="17" width="2" height="4" fill="white"/>
<rect x="33" y="21" width="3" height="2" fill="white"/>
<rect x="35" y="23" width="2" height="8" fill="white"/>
<rect x="27" y="25" width="8" height="6" fill="white"/>
<rect x="27" y="19" width="7" height="2" fill="white"/>
<rect x="36" y="19" width="2" height="12" fill="white"/>
<rect x="38" y="21" width="2" height="10" fill="white"/>
<rect x="40" y="23" width="2" height="2" fill="white"/>
<rect x="40" y="25" width="2" height="2" fill="white"/>
<rect x="40" y="27" width="2" height="2" fill="white"/>
<rect x="28" y="13" width="2" height="2" fill="white"/>
<rect x="27" y="15" width="5" height="4" fill="white"/>
<rect x="32" y="15" width="2" height="4" fill="white"/>
<rect x="40" y="29" width="2" height="2" fill="white"/>
<rect x="40" y="31" width="2" height="2" fill="white"/>
<rect x="38" y="31" width="2" height="2" fill="white"/>
<rect x="36" y="31" width="2" height="2" fill="white"/>
<rect x="36" y="33" width="2" height="2" fill="white"/>
<rect x="34" y="33" width="2" height="2" fill="white"/>
<rect x="32" y="33" width="2" height="2" fill="white"/>
<rect x="30" y="33" width="2" height="2" fill="white"/>
<rect x="30" y="31" width="2" height="2" fill="white"/>
<rect x="28" y="31" width="2" height="2" fill="white"/>
<rect x="22" y="31" width="2" height="2" fill="white"/>
<rect x="24" y="31" width="2" height="2" fill="white"/>
<rect x="26" y="31" width="2" height="2" fill="white"/>
<rect x="20" y="31" width="2" height="2" fill="white"/>
<rect x="18" y="31" width="2" height="2" fill="white"/>
<rect x="14" y="33" width="2" height="2" fill="white"/>
<rect x="16" y="33" width="2" height="2" fill="white"/>
<rect x="18" y="33" width="2" height="2" fill="white"/>
<rect x="12" y="33" width="2" height="2" fill="white"/>
<rect x="6" y="33" width="2" height="2" fill="white"/>
<rect x="10" y="31" width="2" height="2" fill="white"/>
<rect x="12" y="31" width="2" height="2" fill="white"/>
<rect x="8" y="27" width="2" height="2" fill="white"/>
<rect x="8" y="29" width="2" height="2" fill="white"/>
</svg>
